<?xml version="1.0" encoding="utf-8"?>
<!-- Generator: Adobe Illustrator 25.0.0, SVG Export Plug-In . SVG Version: 6.00 Build 0)  -->
<svg version="1.1" id="图层_1" xmlns="http://www.w3.org/2000/svg" xmlns:xlink="http://www.w3.org/1999/xlink" x="0px" y="0px"
	 viewBox="0 0 1366 768" style="enable-background:new 0 0 1366 768;" xml:space="preserve">
<style type="text/css">
	.st0{fill:#D4494F;}
</style>
<path class="st0" d="M682.93,751.66c-50.98,0-100.45-9.95-147.02-29.68c-44.91-18.92-85.7-46.4-120.11-80.91
	c-78.58-78.36-118.63-187.38-109.48-297.97c9.16-110.6,66.59-211.54,156.99-275.91c13.19-7.7,30.08-4.1,38.98,8.3
	c8.91,12.41,6.93,29.55-4.58,39.6c-40.5,29.08-73.71,67.15-97.04,111.22c-24.09,45.5-36.6,96.23-36.42,147.71
	c0,85.07,33.14,165.1,93.32,225.28c59.63,59.98,140.77,93.61,225.34,93.39c85.07,0,165.16-33.15,225.41-93.39
	c59.97-59.6,93.57-140.73,93.32-225.28c0.18-51.48-12.32-102.21-36.42-147.71c-23.34-44.03-56.55-82.05-97.04-111.09
	c-13.24-9.5-16.28-27.94-6.77-41.18c9.5-13.24,27.94-16.28,41.18-6.78c90.44,64.36,147.9,165.32,157.06,275.94
	c9.16,110.62-30.92,219.66-109.55,298.01C879.3,712.1,783.15,751.87,682.93,751.73V751.66z M691.82,341.87
	c-7.83,0.02-15.35-3.08-20.89-8.61c-5.55-5.53-8.66-13.04-8.66-20.88V-37.36c0.73-15.81,13.76-28.25,29.59-28.25
	c15.82,0,28.85,12.44,29.58,28.25v349.74C721.43,328.77,708.2,341.87,691.82,341.87L691.82,341.87z M691.82,341.87"/>
</svg>
